<svg width="16" height="16" viewBox="0 0 16 16" fill="none" xmlns="http://www.w3.org/2000/svg">
<g clip-path="url(#clip0_306_98)">
<path d="M3.42855 8V4.99429C3.43748 4.40347 3.5629 3.82021 3.79763 3.27795C4.03235 2.73568 4.37177 2.24506 4.79644 1.8342C5.2211 1.42333 5.72267 1.1003 6.27239 0.883615C6.82211 0.666926 7.40919 0.560839 7.99998 0.571431C8.59078 0.560839 9.17785 0.666926 9.72758 0.883615C10.2773 1.1003 10.7789 1.42333 11.2035 1.8342C11.6282 2.24506 11.9676 2.73568 12.2023 3.27795C12.4371 3.82021 12.5625 4.40347 12.5714 4.99429V8M10.2857 14C10.8919 14 11.4733 13.7592 11.9019 13.3305C12.3306 12.9019 12.5714 12.3205 12.5714 11.7143V9.14286M10.2857 14C10.2857 14.3789 10.1352 14.7422 9.86728 15.0102C9.59937 15.2781 9.23601 15.4286 8.85713 15.4286H7.14284C6.76396 15.4286 6.4006 15.2781 6.13269 15.0102C5.86478 14.7422 5.71427 14.3789 5.71427 14C5.71427 13.6211 5.86478 13.2578 6.13269 12.9899C6.4006 12.7219 6.76396 12.5714 7.14284 12.5714H8.85713C9.23601 12.5714 9.59937 12.7219 9.86728 12.9899C10.1352 13.2578 10.2857 13.6211 10.2857 14ZM1.71427 6.28572H2.85713C3.00868 6.28572 3.15402 6.34592 3.26119 6.45308C3.36835 6.56025 3.42855 6.70559 3.42855 6.85715V10.2857C3.42855 10.4373 3.36835 10.5826 3.26119 10.6898C3.15402 10.7969 3.00868 10.8571 2.85713 10.8571H1.71427C1.41116 10.8571 1.12047 10.7367 0.906146 10.5224C0.691819 10.3081 0.571411 10.0174 0.571411 9.71429V7.42857C0.571411 7.12547 0.691819 6.83478 0.906146 6.62045C1.12047 6.40612 1.41116 6.28572 1.71427 6.28572ZM14.2857 10.8571H13.1428C12.9913 10.8571 12.8459 10.7969 12.7388 10.6898C12.6316 10.5826 12.5714 10.4373 12.5714 10.2857V6.85715C12.5714 6.70559 12.6316 6.56025 12.7388 6.45308C12.8459 6.34592 12.9913 6.28572 13.1428 6.28572H14.2857C14.5888 6.28572 14.8795 6.40612 15.0938 6.62045C15.3081 6.83478 15.4286 7.12547 15.4286 7.42857V9.71429C15.4286 10.0174 15.3081 10.3081 15.0938 10.5224C14.8795 10.7367 14.5888 10.8571 14.2857 10.8571Z" stroke="currentColor" stroke-width="1.14286" stroke-linecap="round" stroke-linejoin="round"/>
</g>
<defs>
<clipPath id="clip0_306_98">
<rect width="16" height="16" fill="white"/>
</clipPath>
</defs>
</svg>
